<?xml version="1.0" encoding="iso-8859-1"?>
<!-- Generator: Adobe Illustrator 17.1.0, SVG Export Plug-In . SVG Version: 6.00 Build 0)  -->
<!DOCTYPE svg PUBLIC "-//W3C//DTD SVG 1.1//EN" "http://www.w3.org/Graphics/SVG/1.1/DTD/svg11.dtd">
<svg version="1.1" id="Capa_1" xmlns="http://www.w3.org/2000/svg" xmlns:xlink="http://www.w3.org/1999/xlink" x="0px" y="0px"
	 viewBox="0 0 420.004 420.004" style="enable-background:new 0 0 420.004 420.004;" xml:space="preserve">
<path d="M359.441,357.385c37.425-37.94,60.563-90.006,60.563-147.38c0-3.133-0.082-6.247-0.219-9.347c0-0.003,0-0.007,0-0.01
	c0-0.002,0-0.005-0.001-0.007c-2.367-53.672-24.973-102.168-60.359-138.035c-0.285-0.381-0.589-0.752-0.936-1.098
	c-0.346-0.347-0.718-0.651-1.099-0.936C321.547,25.214,273.093,2.619,219.467,0.226c-0.038-0.002-0.074-0.009-0.112-0.011
	c-0.058-0.003-0.115,0.002-0.173,0c-3.047-0.132-6.107-0.213-9.186-0.213c-57.377,0-109.445,23.14-147.386,60.567
	c-0.383,0.286-0.756,0.592-1.104,0.94c-0.348,0.348-0.654,0.722-0.94,1.105C23.14,100.557,0,152.626,0,210.005
	c0,3.105,0.082,6.191,0.216,9.263c0.001,0.029-0.002,0.058,0,0.087c0.001,0.02,0.005,0.039,0.006,0.059
	C2.6,273.07,25.204,321.551,60.583,357.408c0.282,0.375,0.582,0.741,0.924,1.082c0.341,0.341,0.706,0.641,1.081,0.923
	c35.832,35.357,84.273,57.958,137.888,60.363c0.057,0.004,0.113,0.014,0.17,0.017c0.165,0.008,0.328,0.012,0.491,0.012
	c0.013,0,0.026-0.002,0.039-0.002c2.927,0.121,5.865,0.199,8.821,0.199c57.376,0,109.443-23.136,147.385-60.557
	c0.386-0.288,0.762-0.596,1.113-0.947C358.846,358.147,359.154,357.771,359.441,357.385z M20.871,228.144
	c50.425-4.616,97.43-25.249,134.215-58.912L195.854,210L68.829,337.025C42.297,307.568,24.834,269.796,20.871,228.144z
	 M68.831,82.977l72.099,72.099c-33.221,30.139-75.511,48.696-120.907,53.06C20.49,160.076,38.882,116.229,68.831,82.977z
	 M399.133,191.859c-50.425,4.617-97.431,25.251-134.218,58.917L224.139,210L351.166,82.973
	C377.702,112.431,395.168,150.205,399.133,191.859z M209.996,195.858l-40.768-40.768c33.664-36.786,54.297-83.791,58.915-134.215
	c41.651,3.965,79.422,21.427,108.88,47.957L209.996,195.858z M155.073,140.934L82.974,68.835
	c33.252-29.951,77.1-48.344,125.162-48.808C203.77,65.422,185.212,107.711,155.073,140.934z M209.996,224.142l40.776,40.776
	c-33.664,36.785-54.297,83.789-58.914,134.212c-41.654-3.964-79.429-21.428-108.887-47.962L209.996,224.142z M264.928,279.074
	l72.098,72.098c-33.252,29.948-77.099,48.339-125.16,48.806C216.232,354.583,234.789,312.295,264.928,279.074z M279.07,264.932
	c33.223-30.141,75.514-48.7,120.91-53.065c-0.465,48.063-18.858,91.911-48.812,125.164L279.07,264.932z"/>
<g>
</g>
<g>
</g>
<g>
</g>
<g>
</g>
<g>
</g>
<g>
</g>
<g>
</g>
<g>
</g>
<g>
</g>
<g>
</g>
<g>
</g>
<g>
</g>
<g>
</g>
<g>
</g>
<g>
</g>
</svg>
