<?xml version="1.0" encoding="iso-8859-1"?>
<!-- Generator: Adobe Illustrator 17.1.0, SVG Export Plug-In . SVG Version: 6.00 Build 0)  -->
<!DOCTYPE svg PUBLIC "-//W3C//DTD SVG 1.1//EN" "http://www.w3.org/Graphics/SVG/1.1/DTD/svg11.dtd">
<svg version="1.1" id="Capa_1" xmlns="http://www.w3.org/2000/svg" xmlns:xlink="http://www.w3.org/1999/xlink" x="0px" y="0px"
	 viewBox="0 0 439.619 439.619" style="enable-background:new 0 0 439.619 439.619;" xml:space="preserve">
<g>
	<path d="M421.005,307.896c-5.855-5.855-13.64-9.08-21.92-9.08s-16.065,3.225-21.92,9.08c-5.855,5.855-9.08,13.64-9.08,21.92
		c0,8.281,3.225,16.065,9.08,21.921c0.633,0.633,0.633,1.704,0,2.338c-0.396,0.396-0.854,0.479-1.169,0.479
		c-0.315,0-0.773-0.083-1.169-0.479c-0.026-0.026-0.053-0.053-0.079-0.079c0-0.001-39.947-39.064-92.182-90.157l-21.87-21.391
		c72.804-74.42,155.276-158.698,171.384-175.05c10.032-10.184,10.008-26.655-0.053-36.716c-4.899-4.899-11.414-7.598-18.344-7.598
		c-6.909,0-13.433,2.679-18.372,7.544c-15.999,15.76-94.91,92.986-175.5,171.825C116.749,101.632,57.712,43.831,44.309,30.629
		C34.125,20.598,17.653,20.622,7.593,30.682C-2.468,40.744-2.492,57.214,7.54,67.398c13.021,13.219,72.228,73.693,171.384,175.051
		c-7.379,7.218-14.685,14.364-21.864,21.387c-0.002,0.001-0.004,0.003-0.005,0.004c-52.235,51.093-92.182,90.156-92.182,90.156
		c-0.027,0.026-0.054,0.053-0.08,0.079c-0.396,0.396-0.854,0.479-1.169,0.479c-0.315,0-0.773-0.083-1.169-0.479
		c-0.634-0.634-0.634-1.705,0-2.338c5.855-5.855,9.08-13.64,9.08-21.921c-0.001-8.28-3.225-16.065-9.08-21.92
		c-5.855-5.855-13.64-9.08-21.92-9.08s-16.065,3.225-21.92,9.08c-24.818,24.819-24.818,65.201,0,90.02
		c12.006,12.007,27.992,18.619,45.01,18.619c17.019,0,33.003-6.612,45.009-18.618c0.026-0.026,0.053-0.053,0.079-0.08
		c0,0,39.064-39.947,90.157-92.183c6.61-6.758,13.63-13.935,20.941-21.409l20.941,21.409c51.093,52.236,90.156,92.183,90.157,92.183
		c0.026,0.026,0.052,0.053,0.079,0.08c12.004,12.004,27.989,18.616,45.008,18.618c0.002,0,0.004,0,0.006,0
		c17.016,0,32.999-6.612,45.005-18.619C445.824,373.097,445.824,332.715,421.005,307.896z M261.964,298.74l13.686-13.686
		c2.613,2.556,5.183,5.069,7.721,7.552l-13.855,13.855C267.034,303.922,264.52,301.352,261.964,298.74z M409.345,44.877
		c1.174-1.156,2.714-1.792,4.337-1.792c1.587,0,3.08,0.618,4.201,1.74c2.322,2.321,2.298,6.152-0.053,8.539
		c-16.642,16.895-103.99,106.158-178.424,182.247l-0.001,0.001c-0.001,0.001-0.001,0.001-0.001,0.001
		c-16.914,17.29-33.163,33.902-47.762,48.827l-13.374-13.374c7.172-7.015,14.45-14.134,21.785-21.309
		c0.002-0.002,0.004-0.003,0.006-0.005c0.002-0.002,0.003-0.004,0.005-0.006C291.105,160.692,391.089,62.86,409.345,44.877z
		 M170.103,306.461l-13.855-13.855c2.538-2.483,5.108-4.996,7.721-7.552l13.686,13.686
		C175.1,301.352,172.586,303.922,170.103,306.461z M21.788,53.363c-2.351-2.387-2.374-6.217-0.053-8.539
		c2.321-2.322,6.151-2.298,8.539,0.053c13.405,13.205,72.353,70.918,175.235,171.566c-4.104,4.015-8.202,8.023-12.288,12.02
		C122.451,156.122,38.101,69.925,21.788,53.363z M94.455,383.811c-8.225,8.206-19.171,12.724-30.83,12.724
		c-11.677,0-22.639-4.532-30.868-12.761c-17.02-17.021-17.02-44.715,0-61.735c2.078-2.078,4.84-3.222,7.778-3.222
		s5.701,1.145,7.778,3.222c2.078,2.078,3.222,4.84,3.222,7.778c0,2.939-1.144,5.701-3.222,7.778c-8.442,8.443-8.442,22.18,0,30.622
		c4.086,4.086,9.524,6.337,15.312,6.337c5.765,0,11.183-2.233,15.264-6.29c1.024-1.001,26.551-25.963,63.062-61.673l14.169,14.169
		C120.527,357.149,95.611,382.628,94.455,383.811z M246.71,256.745l14.642,14.322l-13.373,13.374l-14.18-14.496
		C238.036,265.612,242.345,261.207,246.71,256.745z M406.863,383.773c-8.23,8.229-19.189,12.761-30.863,12.761h-0.004
		c-11.661-0.001-22.608-4.519-30.831-12.724c-1.157-1.183-26.072-26.661-61.663-63.051l14.169-14.169
		c36.511,35.71,62.038,60.672,63.061,61.673c4.081,4.057,9.499,6.29,15.264,6.29c5.787,0,11.225-2.25,15.312-6.337
		c8.442-8.443,8.442-22.18,0-30.622c-2.078-2.078-3.222-4.84-3.222-7.778c0-2.938,1.145-5.701,3.222-7.778
		c2.077-2.077,4.84-3.222,7.778-3.222c2.938,0,5.701,1.145,7.778,3.222C423.883,339.059,423.883,366.753,406.863,383.773z"/>
	<path d="M219.808,136.216c25.135,0,45.584-20.447,45.584-45.58c0-25.135-20.449-45.584-45.584-45.584
		c-25.133,0-45.581,20.449-45.581,45.584C174.227,115.769,194.674,136.216,219.808,136.216z M219.808,65.051
		c14.107,0,25.585,11.477,25.585,25.584c0,14.105-11.477,25.581-25.585,25.581c-14.105,0-25.581-11.476-25.581-25.581
		C194.227,76.528,205.703,65.051,219.808,65.051z"/>
</g>
<g>
</g>
<g>
</g>
<g>
</g>
<g>
</g>
<g>
</g>
<g>
</g>
<g>
</g>
<g>
</g>
<g>
</g>
<g>
</g>
<g>
</g>
<g>
</g>
<g>
</g>
<g>
</g>
<g>
</g>
</svg>
