<?xml version="1.0" encoding="iso-8859-1"?>
<!-- Generator: Adobe Illustrator 17.1.0, SVG Export Plug-In . SVG Version: 6.00 Build 0)  -->
<!DOCTYPE svg PUBLIC "-//W3C//DTD SVG 1.1//EN" "http://www.w3.org/Graphics/SVG/1.1/DTD/svg11.dtd">
<svg version="1.1" id="Capa_1" xmlns="http://www.w3.org/2000/svg" xmlns:xlink="http://www.w3.org/1999/xlink" x="0px" y="0px"
	 viewBox="0 0 418 418" style="enable-background:new 0 0 418 418;" xml:space="preserve">
<path d="M412.413,44.76c-3.814-20.487-17.9-36.563-29.842-41.855C378.221,0.978,373.909,0,369.757,0
	c-7.259,0-13.817,2.878-19.494,8.554c-9.622,9.622-9.857,23.953-5.822,33.889c6.776,16.679,19.722,33.193,28.288,44.121
	c0.597,0.762,1.23,1.57,1.855,2.372L247.386,216.135l-13.579-13.579l79.941-79.941c19.107-19.107,20.161-38.993,17.681-52.311
	c-3.814-20.487-17.9-36.564-29.842-41.856c-4.351-1.928-8.662-2.905-12.814-2.905c-7.259,0-13.817,2.878-19.494,8.554
	c-9.623,9.624-9.858,23.955-5.822,33.889c6.776,16.679,19.723,33.194,28.289,44.122c0.597,0.762,1.23,1.569,1.855,2.371
	l-73.935,73.936l-13.579-13.579l26.678-26.678c19.106-19.107,20.161-38.993,17.681-52.311c-3.815-20.487-17.9-36.563-29.843-41.856
	c-4.351-1.928-8.662-2.906-12.814-2.906c-7.258,0-13.816,2.878-19.493,8.555c-9.623,9.624-9.858,23.954-5.822,33.888
	c6.776,16.681,19.723,33.196,28.29,44.125c0.596,0.761,1.229,1.568,1.853,2.369l-20.671,20.671l-13.049-13.049
	c-1.876-1.875-4.419-2.929-7.071-2.929c-2.652,0-5.195,1.054-7.071,2.929L54.987,257.408l-37.021,37.021
	c-17.806,17.806-17.806,46.777,0,64.583l45.243,45.243c2.696,2.695,5.669,5.012,8.855,6.924c7.009,4.206,15.05,6.452,23.436,6.452
	c6.357,0,12.512-1.302,18.174-3.759c4.298-1.865,8.307-4.402,11.902-7.557C138.575,413.961,153.554,418,169.037,418
	c2.867,0,5.755-0.138,8.646-0.417c21.487-2.071,41.928-11.818,57.557-27.446c15.628-15.629,25.376-36.069,27.446-57.557
	c1.78-18.468-2.188-36.623-11.21-52.009l23.102-23.102c3.905-3.905,3.905-10.237,0-14.142l-13.049-13.049L394.733,97.072
	C413.84,77.965,414.894,58.078,412.413,44.76z M281.986,60.457c-1.511-3.717-1.521-9.262,1.435-12.218
	c2.376-2.376,4.039-2.697,5.352-2.697c1.344,0,2.929,0.4,4.711,1.19c6.037,2.675,15.75,13.628,18.283,27.232
	c1.657,8.895,0.063,17.339-4.741,25.217C299.152,89.135,287.595,74.264,281.986,60.457z M201.001,85.999
	c-1.51-3.717-1.521-9.262,1.435-12.217c2.376-2.376,4.038-2.697,5.351-2.697c1.344,0,2.929,0.401,4.711,1.191
	c6.038,2.675,15.751,13.628,18.284,27.232c1.657,8.895,0.063,17.339-4.741,25.217C218.167,114.678,206.61,99.806,201.001,85.999z
	 M25.336,320.606c1.075-4.414,3.333-8.595,6.773-12.035l29.949-29.949l81.54,81.541l-29.949,29.949
	c-1.818,1.818-3.86,3.33-6.065,4.509c-3.674,1.966-7.799,3.008-12.084,3.008c-5.57,0-10.869-1.762-15.261-5.023
	c-1.013-0.753-1.979-1.585-2.887-2.494l-45.243-45.243c-5.004-5.004-7.506-11.576-7.506-18.149
	C24.603,324.666,24.847,322.612,25.336,320.606z M221.097,375.994c-22.076,22.078-54.918,27.898-80.65,15.604l24.364-24.364
	c0.003-0.003,0.005-0.005,0.007-0.008l71.883-71.883C248.995,321.075,243.175,353.917,221.097,375.994z M157.74,346.02L76.2,264.479
	l95.623-95.623l13.042,13.042c0.003,0.003,0.005,0.005,0.007,0.008c0.002,0.002,0.005,0.004,0.008,0.007l68.483,68.485
	L157.74,346.02z M362.97,34.916c-1.51-3.718-1.52-9.264,1.436-12.219c2.376-2.377,4.039-2.697,5.352-2.697
	c1.344,0,2.929,0.4,4.711,1.19c6.037,2.675,15.75,13.628,18.284,27.232c1.656,8.895,0.061,17.34-4.742,25.218
	C380.137,63.593,368.579,48.722,362.97,34.916z"/>
<g>
</g>
<g>
</g>
<g>
</g>
<g>
</g>
<g>
</g>
<g>
</g>
<g>
</g>
<g>
</g>
<g>
</g>
<g>
</g>
<g>
</g>
<g>
</g>
<g>
</g>
<g>
</g>
<g>
</g>
</svg>
