<?xml version="1.0" encoding="iso-8859-1"?>
<!-- Generator: Adobe Illustrator 17.1.0, SVG Export Plug-In . SVG Version: 6.00 Build 0)  -->
<!DOCTYPE svg PUBLIC "-//W3C//DTD SVG 1.1//EN" "http://www.w3.org/Graphics/SVG/1.1/DTD/svg11.dtd">
<svg version="1.1" id="Capa_1" xmlns="http://www.w3.org/2000/svg" xmlns:xlink="http://www.w3.org/1999/xlink" x="0px" y="0px"
	 viewBox="0 0 420 420" style="enable-background:new 0 0 420 420;" xml:space="preserve">
<path d="M209.994,0.003C94.203,0.003,0,94.208,0,210.002c0,115.792,94.203,209.995,209.994,209.995
	C325.792,419.997,420,325.794,420,210.002C420,94.208,325.792,0.003,209.994,0.003z M207.313,399.963
	c-27.577-0.384-53.751-6.67-77.315-17.654c24.752-17.271,45.661-39.749,61.035-65.827c17.951-30.449,27.879-65.092,28.878-100.545
	c23.598-12.701,49.325-20.039,75.398-22.042C313.903,274.26,278.516,357.702,207.313,399.963z M311.697,173.19
	c-35.335-0.332-70.309,8.401-101.513,25.263c-22.799-14.086-42.018-32.697-56.789-54.275
	c60.288-56.275,150.223-67.357,222.415-26.852c12.794,22.798,21.018,48.484,23.434,75.817
	C371.904,180.337,341.976,173.465,311.697,173.19z M353.052,85.102c-71.696-25.435-152.613-10.081-210.271,41.681
	c-13.769-25.578-21.741-54.325-22.694-84.122c26.782-14.448,57.402-22.659,89.906-22.659
	C266.989,20.003,318.196,45.232,353.052,85.102z M100.784,54.617c2.588,30.054,11.598,59.381,26.487,85.719
	c17.393,30.768,42.434,56.68,72.635,75.271c-0.798,26.791-7.306,52.745-18.609,76.329c-78.877-24.074-133.439-96.411-134.462-179.18
	C60.563,89.807,78.991,69.98,100.784,54.617z M20,210.002c0-21.567,3.619-42.302,10.27-61.64
	c13.76,74.898,67.546,137.389,141.269,161.463c-15.261,24.704-36.16,45.976-61.477,61.697C56.048,337.981,20,278.127,20,210.002z
	 M246.492,396.466C304.469,347.1,331.691,269.279,315.68,193.4c29.045,0.865,57.936,8.338,84.223,22.421
	C397.19,305.51,332.015,379.759,246.492,396.466z"/>
<g>
</g>
<g>
</g>
<g>
</g>
<g>
</g>
<g>
</g>
<g>
</g>
<g>
</g>
<g>
</g>
<g>
</g>
<g>
</g>
<g>
</g>
<g>
</g>
<g>
</g>
<g>
</g>
<g>
</g>
</svg>
