<?xml version="1.0" encoding="UTF-8" standalone="no"?>
<svg width="42px" height="33px" viewBox="0 0 42 33" version="1.1" xmlns="http://www.w3.org/2000/svg" xmlns:xlink="http://www.w3.org/1999/xlink">
    <!-- Generator: Sketch 47.1 (45422) - http://www.bohemiancoding.com/sketch -->
    <title>left-arrow</title>
    <desc>Created with Sketch.</desc>
    <defs>
        <filter x="-21.2%" y="-26.1%" width="145.5%" height="169.6%" filterUnits="objectBoundingBox" id="filter-1">
            <feOffset dx="0" dy="2" in="SourceAlpha" result="shadowOffsetOuter1"></feOffset>
            <feGaussianBlur stdDeviation="2" in="shadowOffsetOuter1" result="shadowBlurOuter1"></feGaussianBlur>
            <feColorMatrix values="0 0 0 0 0   0 0 0 0 0   0 0 0 0 0  0 0 0 0.5 0" type="matrix" in="shadowBlurOuter1" result="shadowMatrixOuter1"></feColorMatrix>
            <feMerge>
                <feMergeNode in="shadowMatrixOuter1"></feMergeNode>
                <feMergeNode in="SourceGraphic"></feMergeNode>
            </feMerge>
        </filter>
    </defs>
    <g id="Page-1" stroke="none" stroke-width="1" fill="none" fill-rule="evenodd">
        <g id="left-arrow" filter="url(#filter-1)" transform="translate(4.000000, 3.000000)" stroke="#314864" stroke-width="2" fill="#314864" fill-rule="nonzero">
            <path d="M11.273,1.009 C11.717,0.565 12.416,0.565 12.86,1.009 C13.289,1.438 13.289,2.152 12.86,2.58 L4.813,10.627 L31.367,10.627 C31.986,10.627 32.494,11.119 32.494,11.738 C32.494,12.357 31.986,12.865 31.367,12.865 L4.813,12.865 L12.86,20.897 C13.289,21.341 13.289,22.056 12.86,22.484 C12.416,22.928 11.717,22.928 11.273,22.484 L1.321,12.532 C0.892,12.103 0.892,11.389 1.321,10.961 L11.273,1.009 Z" id="Shape"></path>
        </g>
    </g>
</svg>