<?xml version="1.0" encoding="UTF-8" standalone="no"?>
<svg width="68px" height="68px" viewBox="0 0 68 68" version="1.1" xmlns="http://www.w3.org/2000/svg" xmlns:xlink="http://www.w3.org/1999/xlink">
    <!-- Generator: Sketch 47.1 (45422) - http://www.bohemiancoding.com/sketch -->
    <title>calendar copy</title>
    <desc>Created with Sketch.</desc>
    <defs>
        <filter x="-13.8%" y="-10.3%" width="127.6%" height="127.6%" filterUnits="objectBoundingBox" id="filter-1">
            <feOffset dx="0" dy="2" in="SourceAlpha" result="shadowOffsetOuter1"></feOffset>
            <feGaussianBlur stdDeviation="2" in="shadowOffsetOuter1" result="shadowBlurOuter1"></feGaussianBlur>
            <feColorMatrix values="0 0 0 0 0   0 0 0 0 0   0 0 0 0 0  0 0 0 0.5 0" type="matrix" in="shadowBlurOuter1" result="shadowMatrixOuter1"></feColorMatrix>
            <feMerge>
                <feMergeNode in="shadowMatrixOuter1"></feMergeNode>
                <feMergeNode in="SourceGraphic"></feMergeNode>
            </feMerge>
        </filter>
    </defs>
    <g id="Page-1" stroke="none" stroke-width="1" fill="none" fill-rule="evenodd">
        <g id="calendar-copy" filter="url(#filter-1)" transform="translate(5.000000, 3.000000)" fill="#314864" fill-rule="nonzero">
            <path d="M42.899,4.5 C42.434,2.221 40.415,0.5 38,0.5 C37.448,0.5 37,0.947 37,1.5 C37,2.053 37.448,2.5 38,2.5 C39.654,2.5 41,3.846 41,5.5 C41,7.154 39.654,8.5 38,8.5 C37.448,8.5 37,8.947 37,9.5 C37,10.053 37.448,10.5 38,10.5 C40.414,10.5 42.434,8.779 42.899,6.5 L56,6.5 L56,13.5 L44,13.5 L42,13.5 L30,13.5 L28,13.5 L16,13.5 L14,13.5 L2,13.5 L2,6.5 L16,6.5 L19,6.5 C19.552,6.5 20,6.053 20,5.5 C20,4.947 19.552,4.5 19,4.5 L17.184,4.5 C17.598,3.338 18.698,2.5 20,2.5 C21.654,2.5 23,3.846 23,5.5 C23,7.154 21.654,8.5 20,8.5 C19.448,8.5 19,8.947 19,9.5 C19,10.053 19.448,10.5 20,10.5 C22.757,10.5 25,8.257 25,5.5 C25,2.743 22.757,0.5 20,0.5 C17.586,0.5 15.566,2.221 15.101,4.5 L0,4.5 L0,13.5 L0,16.5 L0,27.5 L0,29.5 L0,41.5 L0,43.5 L0,57.5 L14,57.5 L16,57.5 L28,57.5 L30,57.5 L42,57.5 L44,57.5 L58,57.5 L58,43.5 L58,41.5 L58,29.5 L58,27.5 L58,16.5 L58,13.5 L58,4.5 L42.899,4.5 Z M30,15.5 L42,15.5 L42,27.5 L30,27.5 L30,15.5 Z M42,41.5 L30,41.5 L30,29.5 L42,29.5 L42,41.5 Z M16,29.5 L28,29.5 L28,41.5 L16,41.5 L16,29.5 Z M16,15.5 L28,15.5 L28,27.5 L16,27.5 L16,15.5 Z M2,16.5 L2,15.5 L14,15.5 L14,27.5 L2,27.5 L2,16.5 Z M2,29.5 L14,29.5 L14,41.5 L2,41.5 L2,29.5 Z M2,55.5 L2,43.5 L14,43.5 L14,55.5 L2,55.5 Z M16,55.5 L16,43.5 L28,43.5 L28,55.5 L16,55.5 Z M30,55.5 L30,43.5 L42,43.5 L42,55.5 L30,55.5 Z M56,55.5 L44,55.5 L44,43.5 L56,43.5 L56,55.5 Z M56,41.5 L44,41.5 L44,29.5 L56,29.5 L56,41.5 Z M44,27.5 L44,15.5 L56,15.5 L56,16.5 L56,27.5 L44,27.5 Z" id="Shape" stroke="#314864" stroke-width="2"></path>
            <path d="M26,2.5 C25.448,2.5 25,2.053 25,1.5 C25,0.947 25.448,0.5 26,0.5 C28.757,0.5 31,2.743 31,5.5 C31,8.257 28.757,10.5 26,10.5 C25.448,10.5 25,10.053 25,9.5 C25,8.947 25.448,8.5 26,8.5 C27.654,8.5 29,7.154 29,5.5 C29,3.846 27.654,2.5 26,2.5 Z M32,2.5 C31.448,2.5 31,2.053 31,1.5 C31,0.947 31.448,0.5 32,0.5 C34.757,0.5 37,2.743 37,5.5 C37,8.257 34.757,10.5 32,10.5 C31.448,10.5 31,10.053 31,9.5 C31,8.947 31.448,8.5 32,8.5 C33.654,8.5 35,7.154 35,5.5 C35,3.846 33.654,2.5 32,2.5 Z" id="Shape"></path>
            <path d="M31.293,40.207 C31.488,40.402 31.744,40.5 32,40.5 C32.256,40.5 32.512,40.402 32.707,40.207 L36,36.914 L39.293,40.207 C39.488,40.402 39.744,40.5 40,40.5 C40.256,40.5 40.512,40.402 40.707,40.207 C41.098,39.816 41.098,39.184 40.707,38.793 L37.414,35.5 L40.707,32.207 C41.098,31.816 41.098,31.184 40.707,30.793 C40.316,30.402 39.684,30.402 39.293,30.793 L36,34.086 L32.707,30.793 C32.316,30.402 31.684,30.402 31.293,30.793 C30.902,31.184 30.902,31.816 31.293,32.207 L34.586,35.5 L31.293,38.793 C30.902,39.184 30.902,39.816 31.293,40.207 Z" id="Shape"></path>
        </g>
    </g>
</svg>