<?xml version="1.0" encoding="UTF-8" standalone="no"?>
<svg width="30px" height="38px" viewBox="0 0 30 38" version="1.1" xmlns="http://www.w3.org/2000/svg" xmlns:xlink="http://www.w3.org/1999/xlink">
    <!-- Generator: Sketch 47.1 (45422) - http://www.bohemiancoding.com/sketch -->
    <title>edit</title>
    <desc>Created with Sketch.</desc>
    <defs>
        <filter x="-3.2%" y="-2.2%" width="106.4%" height="105.5%" filterUnits="objectBoundingBox" id="filter-1">
            <feOffset dx="0" dy="2" in="SourceAlpha" result="shadowOffsetOuter1"></feOffset>
            <feGaussianBlur stdDeviation="2" in="shadowOffsetOuter1" result="shadowBlurOuter1"></feGaussianBlur>
            <feColorMatrix values="0 0 0 0 0   0 0 0 0 0   0 0 0 0 0  0 0 0 0.5 0" type="matrix" in="shadowBlurOuter1" result="shadowMatrixOuter1"></feColorMatrix>
            <feMerge>
                <feMergeNode in="shadowMatrixOuter1"></feMergeNode>
                <feMergeNode in="SourceGraphic"></feMergeNode>
            </feMerge>
        </filter>
    </defs>
    <g id="Page-1" stroke="none" stroke-width="1" fill="none" fill-rule="evenodd">
        <g id="user-copy" filter="url(#filter-1)" style="mix-blend-mode: color;" transform="translate(5.000000, 3.000000)" stroke-width="2" stroke="#314864" fill="#314864" fill-rule="nonzero">
            <g id="edit">
                <path d="M18.7921429,1.3155 C17.5385714,-0.4385 15.4996429,-0.4385 14.2460714,1.3155 L1.36678571,19.3465 C1.36071429,19.355 1.35714286,19.3655 1.35178571,19.3745 C1.34428571,19.3865 1.33785714,19.3995 1.33107143,19.4125 C1.31214286,19.4495 1.2975,19.489 1.28642857,19.532 C1.28321429,19.545 1.27857143,19.5565 1.27607143,19.5695 C1.275,19.5745 1.27285714,19.5795 1.27178571,19.5845 L0.00928571429,27.0095 C0.00357142857,27.043 0.00214285714,27.077 0.00142857143,27.1105 C0.00142857143,27.117 0,27.123 0,27.1295 C0.000357142857,27.1865 0.00928571429,27.242 0.0232142857,27.2955 C0.0264285714,27.308 0.03,27.319 0.0339285714,27.331 C0.0514285714,27.3845 0.0732142857,27.436 0.103928571,27.479 C0.137857143,27.5265 0.177857143,27.563 0.221071429,27.588 C0.264285714,27.613 0.310357143,27.6255 0.356428571,27.6255 C0.383928571,27.6255 0.411785714,27.621 0.438928571,27.612 L5.7425,25.8445 C5.75214286,25.8415 5.76071429,25.834 5.77,25.8295 C5.78214286,25.824 5.79357143,25.8175 5.80535714,25.81 C5.83107143,25.7935 5.855,25.773 5.87714286,25.7485 C5.88571429,25.739 5.89464286,25.732 5.90285714,25.7215 C5.90571429,25.7175 5.90928571,25.7155 5.91214286,25.7115 L18.7917857,7.68 C20.0453571,5.925 20.0453571,3.07 18.7921429,1.3155 Z M18.2871429,2.0225 C19.1757143,3.267 19.2514286,5.221 18.5192857,6.591 L15.0239286,1.6975 C16.0028571,0.6725 17.3985714,0.7785 18.2871429,2.0225 Z M16.5192857,9.4475 L12.9835714,4.4975 L13.4885714,3.7905 L17.0242857,8.7405 L16.5192857,9.4475 Z M1.77178571,25.144 C1.63214286,24.9485 1.40642857,24.9485 1.26678571,25.144 L0.996428571,25.5225 L1.90857143,20.1585 L3.48785714,19.913 L3.28464286,22.474 C3.28321429,22.493 3.28821429,22.5105 3.28821429,22.529 C3.28821429,22.548 3.28321429,22.565 3.28464286,22.584 C3.28607143,22.6005 3.29214286,22.614 3.29464286,22.63 C3.29892857,22.659 3.305,22.6855 3.3125,22.7125 C3.32178571,22.745 3.33285714,22.7745 3.34642857,22.803 C3.3575,22.826 3.36857143,22.8465 3.38214286,22.8665 C3.39928571,22.892 3.41785714,22.9135 3.43821429,22.9335 C3.45428571,22.949 3.46964286,22.9635 3.4875,22.9755 C3.51107143,22.991 3.53571429,23 3.56142857,23.0085 C3.575,23.013 3.58607143,23.0235 3.6,23.026 C3.61285714,23.028 3.62571429,23.029 3.63892857,23.029 C3.63892857,23.029 3.63928571,23.029 3.63928571,23.029 C3.63928571,23.029 3.63964286,23.029 3.63964286,23.029 L3.64,23.029 C3.64,23.029 3.64035714,23.029 3.64035714,23.029 C3.65321429,23.029 3.66642857,23.028 3.67928571,23.026 L5.50857143,22.7415 L5.33321429,24.9525 L1.50142857,26.2295 L1.77178571,25.851 C1.91107143,25.656 1.91107143,25.3395 1.77178571,25.144 Z M6.25392857,22.4045 L14.2460714,11.215 C14.3857143,11.0195 14.3857143,10.7035 14.2460714,10.508 C14.1064286,10.3125 13.8807143,10.3125 13.7410714,10.508 L5.74892857,21.6975 L4.04428571,21.9625 L4.23357143,19.576 L12.2264286,8.387 C12.3660714,8.1915 12.3660714,7.8755 12.2264286,7.68 C12.0867857,7.4845 11.8610714,7.4845 11.7214286,7.68 L3.72857143,18.869 L2.59178571,19.046 L12.4785714,5.2045 L16.0142857,10.1545 L6.1275,23.996 L6.25392857,22.4045 Z M17.5292857,8.0335 L13.9935714,3.0835 L14.4989286,2.376 L18.0346429,7.326 L17.5292857,8.0335 Z" id="Shape"></path>
            </g>
        </g>
    </g>
</svg>