<?xml version="1.0" encoding="UTF-8" standalone="no"?>
<svg width="227px" height="196px" viewBox="0 0 227 196" version="1.1" xmlns="http://www.w3.org/2000/svg" xmlns:xlink="http://www.w3.org/1999/xlink">
    <!-- Generator: Sketch 47.1 (45422) - http://www.bohemiancoding.com/sketch -->
    <title>Group</title>
    <desc>Created with Sketch.</desc>
    <defs>
        <linearGradient x1="53.6311626%" y1="0%" x2="50%" y2="100%" id="linearGradient-1">
            <stop stop-color="#E1469F" offset="0%"></stop>
            <stop stop-color="#A43FB2" offset="53.1070631%"></stop>
            <stop stop-color="#6AAACA" offset="100%"></stop>
        </linearGradient>
    </defs>
    <g id="Page-2" stroke="none" stroke-width="1" fill="none" fill-rule="evenodd">
        <g id="Group">
            <path d="M88.9800673,38.5354453 C88.3807215,38.9546354 87.8292844,39.4636826 87.3460265,40.0604565 L71,60.2461181 L71,37 C71,36.9462394 70.9994697,36.8926027 70.9984141,36.8390947 C70.9994706,36.7261884 71,36.613156 71,36.5 C71,16.8938914 55.1061086,1 35.5,1 C15.8938914,1 0,16.8938914 0,36.5 C0,36.613156 0.000529422824,36.7261884 0.00158592659,36.8390947 C0.000530290664,36.8926027 -6.58377443e-18,36.9462394 0,37 L0,162 C9.40411727e-17,162.767904 0.10819325,163.510539 0.310167525,164.213491 C1.40944141,172.499729 5.36687293,179.883483 11.1591389,185.34143 C11.9362504,186.098046 12.7546869,186.825871 13.6141252,187.52183 C28.8509333,199.860354 51.2051568,197.510831 63.5436807,182.274022 C63.6148921,182.186084 63.6856142,182.097908 63.7558474,182.009498 C63.7903415,181.968579 63.8245083,181.927229 63.8583409,181.885449 L63.8583409,181.885449 L142.52339,84.7422042 C143.006648,84.1454304 143.389921,83.5002067 143.67534,82.8268035 C152.819996,67.8707725 149.697191,48.0883686 135.702281,36.7555136 C121.707371,25.4226587 101.707992,26.4810878 88.9800673,38.5354453 Z" id="Combined-Shape" fill="#6AAACA"></path>
            <path d="M166.980067,37.5354453 C166.380721,37.9546354 165.829284,38.4636826 165.346027,39.0604565 L149,59.2461181 L149,36 C149,35.9462394 148.99947,35.8926027 148.998414,35.8390947 C148.999471,35.7261884 149,35.613156 149,35.5 C149,15.8938914 133.106109,0 113.5,0 C93.8938914,0 78,15.8938914 78,35.5 C78,35.613156 78.0005294,35.7261884 78.0015859,35.8390947 C78.0005303,35.8926027 78,35.9462394 78,36 L78,161 C78,161.767904 78.1081933,162.510539 78.3101675,163.213491 C79.4094414,171.499729 83.3668729,178.883483 89.1591389,184.34143 C89.9362504,185.098046 90.7546869,185.825871 91.6141252,186.52183 C106.850933,198.860354 129.205157,196.510831 141.543681,181.274022 C141.614892,181.186084 141.685614,181.097908 141.755847,181.009498 C141.790341,180.968579 141.824508,180.927229 141.858341,180.885449 L141.858341,180.885449 L220.52339,83.7422042 C221.006648,83.1454304 221.389921,82.5002067 221.67534,81.8268035 C230.819996,66.8707725 227.697191,47.0883686 213.702281,35.7555136 C199.707371,24.4226587 179.707992,25.4810878 166.980067,37.5354453 Z" id="Combined-Shape" fill="#314864" transform="translate(152.431292, 97.217162) scale(-1, 1) translate(-152.431292, -97.217162) "></path>
            <path d="M89.2232528,89.4016942 C86.4113366,86.7651241 84.0289444,83.6759204 82.1923387,80.2503456 L82,80 L82.0594045,80 C79.4669993,75.0703665 78,69.4565013 78,63.5 C78,43.8938914 93.8938914,28 113.5,28 C133.106109,28 149,43.8938914 149,63.5 C149,69.4565013 147.533001,75.0703665 144.940593,80.0000046 L145,80 L144.807661,80.2503456 C142.971056,83.6759204 140.588663,86.7651241 137.776747,89.4016942 L113.5,121 L89.2232582,89.4017012 Z" id="Combined-Shape" fill="url(#linearGradient-1)"></path>
        </g>
    </g>
</svg>