<?xml version="1.0" encoding="UTF-8" standalone="no"?>
<svg width="66px" height="66px" viewBox="0 0 66 66" version="1.1" xmlns="http://www.w3.org/2000/svg" xmlns:xlink="http://www.w3.org/1999/xlink">
    <!-- Generator: Sketch 47.1 (45422) - http://www.bohemiancoding.com/sketch -->
    <title>search</title>
    <desc>Created with Sketch.</desc>
    <defs>
        <filter x="-16.7%" y="-13.0%" width="135.2%" height="135.2%" filterUnits="objectBoundingBox" id="filter-1">
            <feOffset dx="0" dy="2" in="SourceAlpha" result="shadowOffsetOuter1"></feOffset>
            <feGaussianBlur stdDeviation="2" in="shadowOffsetOuter1" result="shadowBlurOuter1"></feGaussianBlur>
            <feColorMatrix values="0 0 0 0 0   0 0 0 0 0   0 0 0 0 0  0 0 0 0.5 0" type="matrix" in="shadowBlurOuter1" result="shadowMatrixOuter1"></feColorMatrix>
            <feMerge>
                <feMergeNode in="shadowMatrixOuter1"></feMergeNode>
                <feMergeNode in="SourceGraphic"></feMergeNode>
            </feMerge>
        </filter>
    </defs>
    <g id="Page-1" stroke="none" stroke-width="1" fill="none" fill-rule="evenodd">
        <g id="search" filter="url(#filter-1)" transform="translate(6.000000, 4.000000)" stroke="#314864" stroke-width="4" fill="#314864" fill-rule="nonzero">
            <path d="M53.627,49.385 L37.795,33.553 C40.423,30.046 42,25.709 42,21 C42,9.42 32.58,0 21,0 C9.42,0 0,9.42 0,21 C0,32.58 9.42,42 21,42 C25.709,42 30.046,40.423 33.553,37.795 L49.385,53.627 L53.627,49.385 Z M2,21 C2,10.523 10.523,2 21,2 C31.477,2 40,10.523 40,21 C40,31.477 31.477,40 21,40 C10.523,40 2,31.477 2,21 Z M35.567,36.093 C35.745,35.921 35.92,35.746 36.092,35.568 C36.238,35.417 36.396,35.278 36.537,35.123 L50.799,49.385 L49.384,50.8 L35.123,36.537 C35.278,36.396 35.416,36.238 35.567,36.093 Z" id="Shape"></path>
        </g>
    </g>
</svg>