<?xml version="1.0" encoding="UTF-8" standalone="no"?>
<svg width="87px" height="81px" viewBox="0 0 87 81" version="1.1" xmlns="http://www.w3.org/2000/svg" xmlns:xlink="http://www.w3.org/1999/xlink">
    <!-- Generator: Sketch 47.1 (45422) - http://www.bohemiancoding.com/sketch -->
    <title>Shape</title>
    <desc>Created with Sketch.</desc>
    <defs>
        <filter x="-11.2%" y="-6.5%" width="122.5%" height="116.8%" filterUnits="objectBoundingBox" id="filter-1">
            <feOffset dx="0" dy="2" in="SourceAlpha" result="shadowOffsetOuter1"></feOffset>
            <feGaussianBlur stdDeviation="2" in="shadowOffsetOuter1" result="shadowBlurOuter1"></feGaussianBlur>
            <feColorMatrix values="0 0 0 0 0   0 0 0 0 0   0 0 0 0 0  0 0 0 0.5 0" type="matrix" in="shadowBlurOuter1" result="shadowMatrixOuter1"></feColorMatrix>
            <feMerge>
                <feMergeNode in="shadowMatrixOuter1"></feMergeNode>
                <feMergeNode in="SourceGraphic"></feMergeNode>
            </feMerge>
        </filter>
    </defs>
    <g id="Page-1" stroke="none" stroke-width="1" fill="none" fill-rule="evenodd">
        <g id="user-copy" filter="url(#filter-1)" style="mix-blend-mode: color;" transform="translate(6.000000, 4.000000)" stroke="#314864" stroke-width="4" fill="#314864" fill-rule="nonzero">
            <path d="M75,34.5 C75,15.4773273 58.1768182,0 37.5,0 C16.8231818,0 0,15.4773273 0,34.5 C0,44.5476545 4.69636364,53.6042182 12.1718182,59.9145818 L12.1363636,59.9434364 L13.3527273,60.8868545 C13.4318182,60.9483273 13.5177273,60.9985091 13.5968182,61.0587273 C14.2431818,61.5517636 14.9127273,62.0197091 15.5945455,62.4726 C15.8154545,62.6193818 16.0363636,62.7661636 16.2613636,62.9091818 C16.9895455,63.3708545 17.7368182,63.8086909 18.5004545,64.2239455 C18.6668182,64.3142727 18.8345455,64.4020909 19.0022727,64.4899091 C19.8381818,64.9277455 20.6918182,65.3404909 21.5659091,65.7193636 C21.63,65.7469636 21.6954545,65.7720545 21.7595455,65.7996545 C24.6081818,67.0178182 27.6490909,67.9123091 30.8290909,68.4404727 C30.9122727,68.4542727 30.9954545,68.4680727 31.08,68.4818727 C32.0672727,68.6386909 33.0654545,68.7641455 34.0759091,68.8482 C34.1986364,68.8582364 34.3213636,68.8645091 34.4454545,68.8745455 C35.4518182,68.9510727 36.4690909,69 37.5,69 C38.5213636,69 39.5290909,68.9510727 40.53,68.8770545 C40.6568182,68.8670182 40.7836364,68.8607455 40.9104545,68.8507091 C41.9127273,68.7666545 42.9027273,68.6449636 43.8804545,68.4906545 C43.965,68.4768545 44.0509091,68.4630545 44.1354545,68.448 C47.2677273,67.9311273 50.265,67.0567091 53.0768182,65.8699091 C53.1804545,65.826 53.2854545,65.7846 53.3890909,65.7394364 C54.2304545,65.3756182 55.0527273,64.9829455 55.8586364,64.5651818 C56.0590909,64.4610545 56.2581818,64.3556727 56.4572727,64.2477818 C57.1909091,63.8500909 57.9122727,63.4348364 58.6131818,62.9932364 C58.8654545,62.8351636 59.1122727,62.6683091 59.3618182,62.5027091 C59.9604545,62.1062727 60.5481818,61.6972909 61.1195455,61.2694909 C61.2463636,61.1754 61.3827273,61.0938545 61.5068182,60.9972545 L62.7545455,60.0387818 L62.7177273,60.0099273 C70.2586364,53.6970545 75,44.5990909 75,34.5 Z M2.72727273,34.5 C2.72727273,16.8598364 18.3259091,2.50909091 37.5,2.50909091 C56.6740909,2.50909091 72.2727273,16.8598364 72.2727273,34.5 C72.2727273,44.0056909 67.7386364,52.5516545 60.5604545,58.4154 C60.1595455,58.1607273 59.7559091,57.9324 59.3427273,57.7417091 L47.7968182,52.4312182 C46.7604545,51.9544909 46.1168182,50.9960182 46.1168182,49.9309091 L46.1168182,46.2212182 C46.3840909,45.9176182 46.6663636,45.5738727 46.9581818,45.1962545 C48.4527273,43.2542182 49.6513636,41.0938909 50.5254545,38.7692182 C52.2531818,38.0139818 53.3686364,36.4307455 53.3686364,34.6430182 L53.3686364,30.1956545 C53.3686364,29.1079636 52.935,28.0528909 52.1590909,27.2236364 L52.1590909,21.3686727 C52.23,20.7175636 52.4809091,17.043 49.5913636,14.0120182 C47.0781818,11.3724545 43.0104545,10.0363636 37.5,10.0363636 C31.9895455,10.0363636 27.9218182,11.3724545 25.4086364,14.0107636 C22.5190909,17.0417455 22.77,20.7163091 22.8409091,21.3674182 L22.8409091,27.2223818 C22.0663636,28.0516364 21.6313636,29.1067091 21.6313636,30.1944 L21.6313636,34.6417636 C21.6313636,36.0230182 22.305,37.3114364 23.4586364,38.1808364 C24.5631818,42.1615091 26.8363636,45.1749273 27.6763636,46.1961273 L27.6763636,49.8267818 C27.6763636,50.8504909 27.0695455,51.7914 26.0918182,52.2831818 L15.3095455,57.6940364 C14.9659091,57.8659091 14.625,58.0666364 14.2840909,58.2912 C7.19454545,52.4299636 2.72727273,43.9366909 2.72727273,34.5 Z M57.8986364,60.3837818 C57.4213636,60.7024364 56.9359091,61.0110545 56.4436364,61.3058727 C56.2172727,61.4413636 55.9922727,61.5768545 55.7618182,61.7085818 C55.1181818,62.0749091 54.4636364,62.4236727 53.7954545,62.7498545 C53.6481818,62.8213636 53.4995455,62.8891091 53.3509091,62.9593636 C51.8154545,63.6832364 50.2268182,64.3054909 48.5945455,64.8110727 C48.5372727,64.8286364 48.48,64.8474545 48.4213636,64.8650182 C47.5663636,65.1259636 46.7004545,65.3580545 45.825,65.5575273 C45.8222727,65.5575273 45.8195455,65.5587818 45.8168182,65.5587818 C44.9331818,65.7595091 44.0386364,65.9263636 43.1386364,66.0631091 C43.1140909,66.0668727 43.0895455,66.0718909 43.065,66.0756545 C42.2181818,66.2023636 41.3645455,66.2939455 40.5081818,66.3629455 C40.3568182,66.3754909 40.2054545,66.3842727 40.0527273,66.3943091 C39.2059091,66.4532727 38.355,66.4909091 37.5,66.4909091 C36.6354545,66.4909091 35.7736364,66.4520182 34.9159091,66.3930545 C34.7672727,66.3830182 34.6186364,66.3742364 34.4713636,66.3616909 C33.6068182,66.2914364 32.7463636,66.1973455 31.8940909,66.0693818 C31.8559091,66.0631091 31.8177273,66.0568364 31.7795455,66.0505636 C29.9768182,65.7733091 28.2027273,65.3655818 26.475,64.8324 C26.4218182,64.8160909 26.3672727,64.7985273 26.3140909,64.7822182 C25.4563636,64.5137455 24.6081818,64.2164182 23.775,63.8877273 C23.7695455,63.8852182 23.7627273,63.8827091 23.7572727,63.8802 C22.9690909,63.5678182 22.1959091,63.2215636 21.4322727,62.8564909 C21.3327273,62.8088182 21.2318182,62.7636545 21.1336364,62.7147273 C20.4368182,62.3722364 19.755,62.0021455 19.0827273,61.6157455 C18.8836364,61.5003273 18.6859091,61.3836545 18.4895455,61.2657273 C17.8704545,60.8931273 17.2595455,60.5054727 16.665,60.0952364 C16.6036364,60.0525818 16.545,60.0074182 16.4836364,59.9647636 C16.5272727,59.9421818 16.5709091,59.9196 16.6145455,59.8970182 L27.3968182,54.4861636 C29.2513636,53.5552909 30.4036364,51.7700727 30.4036364,49.8267818 L30.4022727,45.3079091 L30.0886364,44.9591455 C30.0586364,44.9277818 27.1104545,41.6283273 25.9963636,37.1608909 L25.8722727,36.6640909 L25.4072727,36.3868364 C24.7513636,35.9966727 24.3586364,35.3443091 24.3586364,34.6405091 L24.3586364,30.1931455 C24.3586364,29.6097818 24.6272727,29.0665636 25.1181818,28.6588364 L25.5681818,28.2849818 L25.5681818,21.2971636 L25.5559091,21.1328182 C25.5518182,21.1027091 25.1495455,18.0855273 27.4595455,15.663 C29.4313636,13.5955091 32.8104545,12.5454545 37.5,12.5454545 C42.1718182,12.5454545 45.54,13.5867273 47.5172727,15.6391636 C49.8245455,18.0366 49.4468182,21.1102364 49.4440909,21.1353273 L49.4318182,28.2874909 L49.8818182,28.6613455 C50.3713636,29.0678182 50.6413636,29.6122909 50.6413636,30.1956545 L50.6413636,34.6430182 C50.6413636,35.5375091 49.98,36.3492 49.0309091,36.6189273 L48.3531818,36.8108727 L48.135,37.4318727 C47.3304545,39.7314545 46.185,41.8554 44.7313636,43.7447455 C44.3740909,44.2089273 44.0263636,44.6204182 43.7277273,44.9353091 L43.3895455,45.2903455 L43.3895455,49.9309091 C43.3895455,51.9532364 44.6113636,53.7723273 46.5777273,54.6756 L58.1236364,59.9860909 C58.1972727,60.0199636 58.2695455,60.0550909 58.3418182,60.0902182 C58.1959091,60.1918364 58.0459091,60.2859273 57.8986364,60.3837818 Z" id="Shape"></path>
        </g>
    </g>
</svg>